<?xml version="1.0"?>
<svg version="1.1" xmlns="http://www.w3.org/2000/svg" width="175" height="84" style=""><path fill="#e0593a" d="M16.34033203125,34.3974609375q0-1.03271484375,0.252685546875-1.505126953125t0.72509765625-0.6591796875t1.142578125-0.142822265625t1.571044921875,0.0439453125q2.28515625,0,4.6142578125,0.703125t4.19677734375,2.054443359375t3.01025390625,3.328857421875t1.142578125,4.54833984375q0,1.7138671875-0.494384765625,3.240966796875t-1.395263671875,2.8564453125t-2.109375,2.427978515625t-2.65869140625,1.91162109375q0.59326171875,0.59326171875,1.5380859375,2.098388671875t1.86767578125,3.2080078125t1.636962890625,3.306884765625t0.845947265625,2.4169921875l-0.263671875,0.3955078125q-0.59326171875,0.3515625-1.42822265625,0.37353515625q-0.3955078125,0-1.03271484375-0.098876953125t-0.81298828125-0.582275390625q-0.90087890625-2.52685546875-1.966552734375-5.20751953125t-2.625732421875-4.833984375l0-0.0439453125q-0.54931640625,0.2197265625-1.087646484375,0.428466796875t-1.087646484375,0.384521484375q0.17578125,2.43896484375,0.362548828125,4.801025390625t0.186767578125,4.779052734375q0,0.3076171875-0.296630859375,0.494384765625t-0.670166015625,0.296630859375t-0.758056640625,0.15380859375t-0.626220703125,0.0439453125q-0.2197265625,0-0.626220703125-0.0439453125t-0.780029296875-0.15380859375t-0.648193359375-0.318603515625t-0.274658203125-0.560302734375q0-2.43896484375-0.10986328125-4.866943359375t-0.24169921875-4.844970703125q-0.68115234375-0.439453125-0.68115234375-1.142578125q0-0.54931640625,0.52734375-0.7470703125q-0.263671875-4.63623046875-0.604248046875-9.25048828125t-0.340576171875-9.29443359375z M20.3173828125,33.71630859375q0.3076171875,4.76806640625,0.692138671875,9.42626953125t0.736083984375,9.42626953125q1.5380859375-0.439453125,2.867431640625-1.527099609375t2.296142578125-2.449951171875t1.505126953125-2.96630859375t0.538330078125-3.18603515625q0-1.7578125-0.703125-3.372802734375t-1.86767578125-2.823486328125q-1.1865234375-1.20849609375-2.724609375-1.8896484375q-1.3623046875-0.59326171875-2.8564453125-0.59326171875l-0.3955078125,0z M37.053295898438,56.7216796875q0-1.25244140625,0.318603515625-2.581787109375t1.0107421875-2.39501953125t1.746826171875-1.73583984375t2.548828125-0.670166015625q1.12060546875,0,2.362060546875,0.384521484375t2.274169921875,1.0986328125t1.680908203125,1.746826171875t0.648193359375,2.30712890625q0,1.5380859375-0.560302734375,2.92236328125t-1.571044921875,2.471923828125t-2.362060546875,1.7138671875t-2.933349609375,0.626220703125q-1.29638671875,0-2.26318359375-0.472412109375t-1.614990234375-1.263427734375t-0.966796875-1.86767578125t-0.318603515625-2.28515625z M40.283276367188,56.677734375q0,0.3955078125,0.120849609375,1.16455078125t0.362548828125,1.505126953125t0.626220703125,1.2744140625t0.933837890625,0.494384765625q1.16455078125-0.1318359375,1.922607421875-0.758056640625t1.23046875-1.527099609375t0.6591796875-1.95556640625t0.186767578125-1.99951171875q0-1.20849609375-0.472412109375-2.021484375t-1.549072265625-1.318359375q0,0.0439453125,0.0439453125,0.0439453125t0.0439453125-0.0439453125l-0.54931640625-0.1318359375q-0.2197265625-0.087890625-0.538330078125-0.19775390625t-0.626220703125-0.4833984375q-0.85693359375,0.3076171875-1.329345703125,0.791015625t-0.714111328125,1.175537109375t-0.296630859375,1.658935546875t-0.054931640625,2.3291015625z M53.701318359375,50.63525390625q0-0.90087890625,0.52734375-1.549072265625t1.285400390625-1.0546875t1.658935546875-0.604248046875t1.669921875-0.19775390625q0.59326171875,0,1.58203125,0.17578125t1.93359375,0.52734375t1.636962890625,0.9228515625t0.692138671875,1.34033203125q0,0.3515625-0.263671875,0.626220703125t-0.54931640625,0.274658203125q-0.59326171875,0-1.07666015625-0.384521484375t-0.999755859375-0.81298828125t-1.131591796875-0.81298828125t-1.38427734375-0.384521484375t-1.395263671875,0.494384765625t-0.626220703125,1.307373046875q0,1.34033203125,0.94482421875,2.625732421875t2.076416015625,2.70263671875t2.076416015625,2.977294921875t0.94482421875,3.44970703125q0,0.81298828125-0.340576171875,1.373291015625t-0.90087890625,0.911865234375t-1.263427734375,0.538330078125t-1.3623046875,0.186767578125q-0.72509765625,0-1.69189453125-0.340576171875t-1.82373046875-0.90087890625t-1.439208984375-1.307373046875t-0.582275390625-1.56005859375q0-0.3955078125,0.560302734375-0.50537109375t0.823974609375-0.10986328125q0.1318359375,0,0.406494140625,0.087890625t0.538330078125,0.19775390625t0.472412109375,0.24169921875t0.164794921875,0.28564453125q0.2197265625,0.263671875,0.670166015625,0.780029296875t0.90087890625,0.8349609375t0.791015625,0.230712890625t0.340576171875-0.98876953125q0-1.7138671875-0.9228515625-3.153076171875t-2.010498046875-2.8125t-2.010498046875-2.724609375t-0.9228515625-2.889404296875z M69.184790039063,58.69921875l0-2.0654296875q0-1.12060546875,0.054931640625-3.175048828125t0.142822265625-4.50439453125t0.24169921875-5.108642578125t0.3515625-5.020751953125t0.472412109375-4.229736328125t0.626220703125-2.7685546875q0.2197265625-0.50537109375,0.72509765625-0.63720703125t0.98876953125-0.1318359375q0.76904296875,0,1.351318359375,0.340576171875t0.582275390625,1.241455078125l-0.3955078125,0.439453125q-0.76904296875,5.07568359375-0.98876953125,10.1953125t-0.3076171875,10.2392578125q0.54931640625-0.85693359375,1.241455078125-1.680908203125t1.5380859375-1.461181640625t1.82373046875-1.021728515625t2.142333984375-0.384521484375q1.494140625,0,2.471923828125,0.90087890625t1.614990234375,2.340087890625t0.94482421875,3.218994140625t0.472412109375,3.5595703125t0.230712890625,3.372802734375t0.19775390625,2.647705078125q-0.41748046875,0.5712890625-1.23046875,0.5712890625l-0.06591796875,0q-0.3515625,0-0.76904296875-0.087890625t-0.54931640625-0.439453125l0.0439453125,0.0439453125q-0.3076171875-0.68115234375-0.41748046875-1.966552734375t-0.17578125-2.83447265625t-0.230712890625-3.175048828125t-0.494384765625-2.9443359375t-0.966796875-2.17529296875t-1.7138671875-0.90087890625l-0.1318359375,0q-1.29638671875,0-2.17529296875,0.791015625q-0.9228515625,0.8349609375-1.494140625,2.197265625t-0.87890625,3.0322265625t-0.472412109375,3.218994140625t-0.252685546875,2.8125t-0.2197265625,1.856689453125q-0.1318359375,0.50537109375-0.780029296875,0.670166015625t-1.109619140625,0.164794921875q-1.07666015625,0-1.7578125-0.615234375q-0.50537109375-1.20849609375-0.59326171875-3.01025390625t-0.087890625-3.515625z M90.20537109375,56.30419921875q0-1.494140625,0.406494140625-2.87841796875t1.219482421875-2.471923828125t2.032470703125-1.73583984375t2.823486328125-0.648193359375q0.98876953125,0,2.186279296875,0.296630859375t2.252197265625,0.87890625t1.7578125,1.483154296875t0.703125,2.0654296875q0,0.54931640625-0.186767578125,0.8349609375t-0.758056640625,0.28564453125l-0.24169921875-0.0439453125q0.63720703125,1.7138671875,1.0986328125,3.515625t0.90087890625,3.603515625q0.17578125,0.3515625,0.263671875,0.626220703125t0.087890625,0.538330078125q0,0.3515625-0.19775390625,0.582275390625t-0.516357421875,0.340576171875t-0.6591796875,0.15380859375t-0.604248046875,0.0439453125q-0.94482421875,0-1.417236328125-0.32958984375t-0.68115234375-0.90087890625t-0.252685546875-1.285400390625t-0.17578125-1.439208984375q-0.263671875,0.85693359375-0.692138671875,1.669921875t-1.0107421875,1.461181640625t-1.373291015625,1.03271484375t-1.77978515625,0.384521484375q-1.4501953125,0-2.43896484375-0.8349609375t-1.593017578125-2.054443359375t-0.87890625-2.603759765625t-0.274658203125-2.57080078125z M93.32548828125,55.99658203125q0,0.81298828125,0.10986328125,1.7138671875t0.362548828125,1.77978515625t0.648193359375,1.658935546875t0.98876953125,1.373291015625q1.07666015625-1.16455078125,1.593017578125-2.83447265625t0.9228515625-3.218994140625t0.9228515625-2.65869140625t1.593017578125-1.109619140625q0.68115234375,0,1.142578125,0.24169921875q-0.2197265625-0.54931640625-0.72509765625-1.065673828125t-1.131591796875-0.94482421875t-1.29638671875-0.703125t-1.263427734375-0.274658203125q-0.17578125,0-0.406494140625,0.054931640625t-0.362548828125,0.010986328125q-0.90087890625,0.263671875-1.483154296875,0.911865234375t-0.94482421875,1.527099609375t-0.516357421875,1.8017578125t-0.15380859375,1.73583984375z M109.27038574219,56.4140625l0-0.63720703125q0-0.791015625,0.0439453125-1.494140625q0.0439453125-0.98876953125,0.0439453125-1.6259765625q0-0.3515625,0.0439453125-0.802001953125t0.2197265625-0.714111328125q0.2197265625-0.2197265625,0.516357421875-0.450439453125t0.648193359375-0.230712890625q1.12060546875,0,1.7578125,0.252685546875t0.68115234375,1.043701171875l0.087890625,0.68115234375q0.3955078125-0.94482421875,1.0546875-2.340087890625t1.527099609375-2.65869140625t1.95556640625-2.1533203125t2.296142578125-0.889892578125q1.12060546875,0,1.845703125,1.0546875t1.153564453125,2.691650390625t0.604248046875,3.6474609375t0.24169921875,3.944091796875t0.087890625,3.526611328125t0.15380859375,2.406005859375q0.087890625,0.68115234375,0.296630859375,1.439208984375t0.208740234375,1.395263671875q0,0.17578125-0.252685546875,0.340576171875t-0.538330078125,0.274658203125t-0.582275390625,0.17578125t-0.428466796875,0.06591796875q-0.85693359375,0-1.219482421875-1.285400390625t-0.450439453125-3.218994140625t-0.087890625-4.185791015625t-0.15380859375-4.185791015625t-0.626220703125-3.218994140625t-1.505126953125-1.329345703125q-0.94482421875,0-1.95556640625,1.219482421875t-1.73583984375,3.240966796875q-0.703125,2.021484375-0.966796875,4.59228515625q-0.087890625,0.81298828125-0.087890625,1.6259765625q0,1.77978515625,0.37353515625,3.5595703125q0.0439453125,0.3076171875-0.252685546875,0.46142578125t-0.736083984375,0.24169921875t-0.889892578125,0.10986328125t-0.692138671875,0.02197265625q-0.85693359375,0-1.373291015625-0.604248046875t-0.802001953125-1.549072265625t-0.384521484375-2.120361328125t-0.120849609375-2.318115234375z M129.23627929687,33.93603515625q0-1.5380859375,0.52734375-2.0654296875t1.47216796875-0.52734375q0.263671875,0,0.560302734375,0.0439453125t0.560302734375,0.1318359375q1.47216796875-0.28564453125,2.79052734375-0.28564453125q2.13134765625,0,3.8671875,0.7470703125q2.79052734375,1.1865234375,4.6142578125,3.515625t2.6806640625,5.47119140625t0.85693359375,6.43798828125q0,1.845703125-0.252685546875,3.84521484375t-0.977783203125,3.71337890625q-0.63720703125,1.5380859375-1.7578125,3.218994140625t-2.537841796875,3.18603515625t-3.05419921875,2.63671875t-3.306884765625,1.527099609375l0,0.17578125q0,0.439453125-0.230712890625,0.714111328125t-0.560302734375,0.41748046875t-0.758056640625,0.186767578125t-0.802001953125,0.0439453125q-0.2197265625,0-0.626220703125-0.0439453125t-0.791015625-0.164794921875t-0.648193359375-0.318603515625t-0.263671875-0.54931640625q0-3.9990234375-0.208740234375-8.009033203125t-0.472412109375-8.02001953125t-0.472412109375-8.009033203125t-0.208740234375-8.02001953125z M133.38911132812,32.8154296875q0.2197265625,2.109375,0.28564453125,4.207763671875t0.19775390625,4.207763671875q0.3515625,5.44921875,0.81298828125,10.843505859375t0.54931640625,10.843505859375q2.109375-1.38427734375,3.614501953125-3.1640625t2.471923828125-3.8671875t1.417236328125-4.383544921875t0.450439453125-4.735107421875q0-1.7578125-0.3076171875-3.8671875t-1.0546875-4.06494140625t-2.010498046875-3.53759765625t-3.153076171875-2.26318359375q-0.3955078125-0.1318359375-0.955810546875-0.2197265625t-1.790771484375-0.087890625q-0.1318359375,0-0.263671875,0.0439453125t-0.263671875,0.0439453125z M151.64113769531,56.30419921875q0-1.494140625,0.406494140625-2.87841796875t1.219482421875-2.471923828125t2.032470703125-1.73583984375t2.823486328125-0.648193359375q0.98876953125,0,2.186279296875,0.296630859375t2.252197265625,0.87890625t1.7578125,1.483154296875t0.703125,2.0654296875q0,0.54931640625-0.186767578125,0.8349609375t-0.758056640625,0.28564453125l-0.24169921875-0.0439453125q0.63720703125,1.7138671875,1.0986328125,3.515625t0.90087890625,3.603515625q0.17578125,0.3515625,0.263671875,0.626220703125t0.087890625,0.538330078125q0,0.3515625-0.19775390625,0.582275390625t-0.516357421875,0.340576171875t-0.6591796875,0.15380859375t-0.604248046875,0.0439453125q-0.94482421875,0-1.417236328125-0.32958984375t-0.68115234375-0.90087890625t-0.252685546875-1.285400390625t-0.17578125-1.439208984375q-0.263671875,0.85693359375-0.692138671875,1.669921875t-1.0107421875,1.461181640625t-1.373291015625,1.03271484375t-1.77978515625,0.384521484375q-1.4501953125,0-2.43896484375-0.8349609375t-1.593017578125-2.054443359375t-0.87890625-2.603759765625t-0.274658203125-2.57080078125z M154.76125488281,55.99658203125q0,0.81298828125,0.10986328125,1.7138671875t0.362548828125,1.77978515625t0.648193359375,1.658935546875t0.98876953125,1.373291015625q1.07666015625-1.16455078125,1.593017578125-2.83447265625t0.9228515625-3.218994140625t0.9228515625-2.65869140625t1.593017578125-1.109619140625q0.68115234375,0,1.142578125,0.24169921875q-0.2197265625-0.54931640625-0.72509765625-1.065673828125t-1.131591796875-0.94482421875t-1.29638671875-0.703125t-1.263427734375-0.274658203125q-0.17578125,0-0.406494140625,0.054931640625t-0.362548828125,0.010986328125q-0.90087890625,0.263671875-1.483154296875,0.911865234375t-0.94482421875,1.527099609375t-0.516357421875,1.8017578125t-0.15380859375,1.73583984375z M170.6841796875,55.77685546875q0-2.021484375,0.472412109375-3.966064453125t0.802001953125-3.878173828125q0.087890625-0.50537109375,0.692138671875-0.626220703125t1.021728515625-0.120849609375q0.72509765625,0,1.16455078125,0.2197265625q0.17578125,0.087890625,0.32958984375,0.19775390625t0.15380859375,0.28564453125q0,1.8896484375-0.450439453125,3.69140625t-0.450439453125,3.8232421875q0,0.68115234375,0.098876953125,1.285400390625t0.186767578125,1.197509765625l0.1318359375,0.63720703125q0,0.17578125,0.02197265625,0.3076171875t0.06591796875,0.3076171875q0,0.3955078125-0.560302734375,0.538330078125t-0.977783203125,0.142822265625q-0.63720703125,0-1.175537109375-0.252685546875t-0.845947265625-0.867919921875l-0.3076171875-0.63720703125q-0.263671875-0.50537109375-0.263671875-1.131591796875t-0.10986328125-1.153564453125z M172.0904296875,42.54931640625l0-0.41748046875q0-1.03271484375,0.516357421875-1.845703125t1.549072265625-0.81298828125q0.1318359375,0,0.252685546875,0.02197265625t0.252685546875,0.02197265625q0.263671875,0.0439453125,0.692138671875,0.208740234375t0.428466796875,0.516357421875l0,0.0439453125q-0.087890625,0.17578125-0.10986328125,0.362548828125t-0.10986328125,0.318603515625l0.0439453125-0.0439453125q-0.263671875,0.68115234375-0.428466796875,1.0986328125t-0.362548828125,0.670166015625t-0.494384765625,0.362548828125t-0.845947265625,0.10986328125q-0.087890625,0-0.3076171875-0.02197265625t-0.472412109375-0.087890625t-0.428466796875-0.17578125t-0.17578125-0.32958984375z"/><path fill="#" d=""/></svg>
